<svg class="svg-icon" style="width: 1em; height: 1em;vertical-align: middle;fill: currentColor;overflow: hidden;" viewBox="0 0 1024 1024" version="1.1" xmlns="http://www.w3.org/2000/svg"><path d="M853.333333 448a42.666667 42.666667 0 0 0-42.666666 42.666667v298.666666a42.666667 42.666667 0 0 1-42.666667 42.666667H170.666667a42.666667 42.666667 0 0 1-42.666667-42.666667v-341.333333a42.666667 42.666667 0 0 1 42.666667-42.666667h85.333333a42.666667 42.666667 0 0 0 42.666667-29.013333l23.04-69.973333a42.666667 42.666667 0 0 1 40.533333-29.013334H597.333333a42.666667 42.666667 0 0 0 0-85.333333H360.106667A128 128 0 0 0 238.933333 279.466667l-13.653333 42.666666H170.666667a128 128 0 0 0-128 128v341.333334a128 128 0 0 0 128 128h597.333333a128 128 0 0 0 128-128v-298.666667a42.666667 42.666667 0 0 0-42.666667-44.8z m-384-42.666667a170.666667 170.666667 0 1 0 170.666667 170.666667 170.666667 170.666667 0 0 0-170.666667-170.666667z m0 256a85.333333 85.333333 0 1 1 85.333334-85.333333 85.333333 85.333333 0 0 1-85.333334 85.333333z m469.333334-469.333333h-42.666667v-42.666667a42.666667 42.666667 0 0 0-85.333333 0v42.666667h-42.666667a42.666667 42.666667 0 0 0 0 85.333333h42.666667v42.666667a42.666667 42.666667 0 0 0 85.333333 0v-42.666667h42.666667a42.666667 42.666667 0 0 0 0-85.333333z"  /></svg>